<?xml version="1.0" encoding="UTF-8"?>
<svg id="Layer_1" xmlns="http://www.w3.org/2000/svg" version="1.1" viewBox="0 0 1755 440">
  <defs>
    <style>
      path {
        fill: #fff;
      }

      .st0 {
        fill: #ea0028;
      }

      .st1 {
        fill: #eb0027;
      }
    </style>
  </defs>
  <path d="M886.5,126c.33.09,1.77,1.55,1.98,2.02l.51,135.49c7.15,51.78,88.42,58.23,106.19,11.17.76-2.01,3.82-11.87,3.82-13.18V127.5c0-.11,1.39-1.5,1.5-1.5h16.5v139.5c0,2.32-2.81,11.46-3.81,14.19-24.21,65.95-137.69,57.04-143.18-20.2-2.99-42.12,2.26-87.57-.06-130.04-.22-1.02.72-3.45,1.55-3.45,3.49,0,12.48-.71,15,0Z"/>
  <path d="M1193,288V127.5c0-.11,1.39-1.5,1.5-1.5h15c.18,0,2.5,2.32,2.5,2.5v190c0,.11-1.39,1.5-1.5,1.5h-17l-114.01-160.99c-3.06-.26-.49,1.08-.49,1.49v158c0,.11-1.39,1.5-1.5,1.5h-17.5V127.5c0-.11,1.39-1.5,1.5-1.5h15c.67,0,2.77,1.88,3.35,2.65,37.58,53.21,74.58,106.9,113.15,159.35Z"/>
  <g>
    <path class="st0" d="M480,121.5c.34-1.1,2.3-1.65,3.45-1.55,58.23,5.72,142.84-20.91,176.07,43.03,18.43,35.45,16.83,95.95-10.01,127.03-38.25,44.3-113.77,26.05-166.06,30.04-1.02.22-3.45-.72-3.45-1.55V121.5ZM543,268h31.5c40.48,0,51.21-81.71,4.32-94.32-1.22-.33-6.72-1.68-7.32-1.68h-28.5v96Z"/>
    <g>
      <path class="st0" d="M689,227c8.06-15.61,19.5-30.28,29-45.29.59-.93,2.2-.49,1.99-1.19l-41-60.51h44.5c1.25,1.12,2.35,2.3,3.34,3.66,3.39,4.7,8.49,18.45,11.65,21.34,1.98,1.81,3.27,1.53,4.85-.22,5.43-6.03,8.82-18.66,15.16-24.78h44.5l-40.67,60.5,40.67,61.5c-12.19-1.13-26.25-1.8-38.54-1.05-2.07.13-4.15.02-5.46,2.05-1.96-1.94-17.59-31.09-18.99-30-5.2,10.45-11.25,20.87-18.01,30.5-13.27.65-26.73.85-40.01.49-.67-5.48,4.16-9.06,6.23-13.31.68-1.4.51-3.18.77-3.69ZM740.5,148v1c.65-.33.65-.67,0-1Z"/>
      <path class="st1" d="M803,242c2.18,1.27-1.25,1.94-2.45,2.05-8.93.82-30.51,1.07-39.16.01-.95-.12-1.91.03-2.39-1.06,1.31-2.03,3.39-1.92,5.46-2.05,12.29-.75,26.35-.08,38.54,1.05Z"/>
      <path class="st0" d="M682,244c-1-.03-2.01.04-3,0-1.99-2.33,7.14-15.41,10-17-.26.51-.09,2.28-.77,3.69-2.06,4.25-6.9,7.83-6.23,13.31Z"/>
    </g>
    <g>
      <path class="st0" d="M471,120v50.5c0,.11-1.39,1.5-1.5,1.5h-105.5v24h107v46.5c0,.11-1.39,1.5-1.5,1.5h-105.5v24h107v50.5c0,.11-1.39,1.5-1.5,1.5h-167.5V120h169Z"/>
      <path class="st0" d="M293,120v52h-55v146.5c0,.11-1.39,1.5-1.5,1.5h-60.5v-148h-56v-52h173Z"/>
    </g>
  </g>
  <g>
    <path d="M1411.5,126l44.51,165c2.12.32,1.61.09,2.22-1.26,1.26-2.79,2.36-8.38,3.27-11.73,13.64-49.75,25.52-100.02,39.25-149.75,1.81-3.33,12.89-2.71,16.79-2.32,4.09.41,4.23.43,5.74,4.26,15.64,52.17,25.49,106.45,41.55,158.45.41,1.33.37,3.04,2.14,3.34l45.51-166h15c.72,0,1.94,2.17,1.31,3.22l-51.86,190.74-18.5.11-45.97-163.08-2.4.48-43.2,162.42-19.77-.03-52.13-193.87h16.5Z"/>
    <path d="M1262.5,271c2.92.82,2.35,6.41,3.18,8.82,14.01,40.62,93.82,34.37,96.32-9.35,1.9-33.24-45.8-37.66-68.95-46.01-24.59-8.87-46-24.34-42.76-53.68,6.57-59.5,109.24-63.15,124.62-9.17,1.21,4.26,4.42,13.26-1.42,14.37-1.87.35-12.36.32-13.51-.43-1.61-1.06-2.04-7.74-2.91-10.09-13.49-36.55-84.18-33.23-88.97,6.13-4.22,34.7,44.96,39.36,68.17,47.66,31.87,11.4,54.31,34.75,38.92,70.44-19.69,45.66-106.18,45.58-125.66.31-1.23-2.87-4.64-14.06-4.47-16.58.06-.92.83-2.4,1.45-2.4,3.67,0,13.35-.74,16,0Z"/>
  </g>
</svg>
