<svg xmlns="http://www.w3.org/2000/svg" width="1280" height="720" viewBox="0 0 1280 720"><rect width="100%" height="100%" fill="#eb0023"/><path fill="#000000" d="M280.55 331.855v27.76h6.52q9.15 0 13.69-3.61 4.54-3.62 4.54-10.53 0-6.97-3.8-10.29-3.81-3.33-11.93-3.33zm44.77 12.92q0 15.1-9.43 23.09-9.44 8-26.83 8h-8.51v33.26h-19.83v-93.52h29.87q17.02 0 25.88 7.33 8.85 7.32 8.85 21.84m35.63-35.18v99.53h-19.51v-99.53zm79.51 99.53h-13.62l-3.78-9.72h-.51q-4.92 6.2-10.14 8.6-5.21 2.4-13.59 2.4-10.3 0-16.22-5.89-5.91-5.88-5.91-16.75 0-11.39 7.96-16.8 7.97-5.4 24.02-5.98l12.41-.38v-3.13q0-10.88-11.13-10.88-8.57 0-20.15 5.18l-6.46-13.17q12.35-6.46 27.38-6.46 14.39 0 22.07 6.26 7.67 6.27 7.67 19.07zm-19.38-27.25v-5.88l-7.55.25q-8.51.26-12.66 3.07-4.16 2.82-4.16 8.57 0 8.26 9.47 8.26 6.78 0 10.84-3.91 4.06-3.9 4.06-10.36m68.51 28.53q-33.39 0-33.39-36.65 0-18.23 9.08-27.86t26.03-9.63q12.41 0 22.26 4.87l-5.75 15.09q-4.61-1.85-8.58-3.04-3.96-1.18-7.93-1.18-15.22 0-15.22 21.62 0 20.98 15.22 20.98 5.63 0 10.43-1.5 4.8-1.51 9.59-4.7v16.69q-4.73 3.01-9.56 4.16t-12.18 1.15m67.93-60.26q-6.21 0-9.73 3.94-3.51 3.93-4.03 11.16h27.38q-.13-7.23-3.77-11.16-3.65-3.94-9.85-3.94m2.75 60.26q-17.27 0-27-9.53-9.72-9.53-9.72-26.99 0-17.98 8.99-27.8t24.85-9.82q15.16 0 23.6 8.64 8.45 8.63 8.45 23.86v9.46h-46.12q.32 8.32 4.92 12.99 4.61 4.67 12.92 4.67 6.46 0 12.22-1.34 5.76-1.35 12.03-4.29v15.1q-5.12 2.55-10.94 3.8t-14.2 1.25m111.04-47.91v46.63H651.8v-41.77q0-15.48-11.51-15.48-8.19 0-11.84 5.57-3.64 5.56-3.64 18.03v33.65H605.3v-99.53h19.51v20.28q0 2.36-.45 11.13l-.45 5.75h1.03q6.52-10.49 20.72-10.49 12.6 0 19.13 6.78 6.52 6.78 6.52 19.45m35.63 10.75q0 10.61 3.48 16.05 3.49 5.44 11.36 5.44 7.8 0 11.22-5.41 3.43-5.4 3.43-16.08 0-10.62-3.46-15.93-3.45-5.31-11.32-5.31-7.8 0-11.26 5.28-3.45 5.27-3.45 15.96m49.44 0q0 17.46-9.21 27.31t-25.65 9.85q-10.3 0-18.16-4.51-7.87-4.51-12.09-12.95-4.22-8.45-4.22-19.7 0-17.53 9.14-27.25 9.15-9.73 25.72-9.73 10.29 0 18.16 4.48t12.09 12.86 4.22 19.64m35.63-63.65v99.53H772.5v-99.53zm43.11 100.81q-12.6 0-19.79-9.79-7.2-9.78-7.2-27.12 0-17.59 7.33-27.41 7.32-9.82 20.18-9.82 13.49 0 20.59 10.49h.64q-1.47-7.99-1.47-14.26v-22.9h19.57v99.53h-14.96l-3.78-9.27h-.83q-6.65 10.55-20.28 10.55m6.85-15.54q7.48 0 10.97-4.35 3.48-4.35 3.8-14.78v-2.11q0-11.51-3.55-16.5t-11.54-4.99q-6.53 0-10.14 5.53t-3.61 16.09q0 10.55 3.64 15.83 3.65 5.28 10.43 5.28m83.02-44.72q-6.2 0-9.72 3.94-3.52 3.93-4.03 11.16h27.38q-.13-7.23-3.77-11.16-3.65-3.94-9.86-3.94m2.76 60.26q-17.28 0-27-9.53t-9.72-26.99q0-17.98 8.99-27.8 8.98-9.82 24.85-9.82 15.16 0 23.6 8.64 8.44 8.63 8.44 23.86v9.46h-46.12q.32 8.32 4.93 12.99t12.92 4.67q6.46 0 12.22-1.34 5.76-1.35 12.02-4.29v15.1q-5.11 2.55-10.93 3.8-5.83 1.25-14.2 1.25m84.94-74.14q3.97 0 6.59.58l-1.47 18.29q-2.37-.64-5.76-.64-9.34 0-14.55 4.8t-5.21 13.43v36.4h-19.51v-71.51h14.77l2.88 12.02h.96q3.33-6.01 8.99-9.69t12.31-3.68"/></svg>